<svg width="56" height="17" viewBox="0 0 56 17" fill="none" xmlns="http://www.w3.org/2000/svg">
<path d="M2.65137 3.33594V14H1.23779V3.33594H2.65137ZM9.08936 3.33594L4.6582 8.30908L2.16797 10.8945L1.93359 9.38574L3.80859 7.32031L7.39014 3.33594H9.08936ZM7.72705 14L3.7793 8.7998L4.62158 7.6792L9.41162 14H7.72705Z" fill="#E27423"/>
<path d="M13.2227 13.0967V10.377C13.2227 10.1686 13.1803 9.98796 13.0957 9.83496C13.0143 9.67871 12.8906 9.55827 12.7246 9.47363C12.5586 9.389 12.3535 9.34668 12.1094 9.34668C11.8815 9.34668 11.6813 9.38574 11.5088 9.46387C11.3395 9.54199 11.2061 9.64453 11.1084 9.77148C11.014 9.89844 10.9668 10.0352 10.9668 10.1816H10.0635C10.0635 9.99284 10.1123 9.80566 10.21 9.62012C10.3076 9.43457 10.4476 9.26693 10.6299 9.11719C10.8154 8.96419 11.0368 8.84375 11.2939 8.75586C11.5544 8.66471 11.8441 8.61914 12.1631 8.61914C12.5472 8.61914 12.8857 8.68424 13.1787 8.81445C13.4749 8.94466 13.7061 9.1416 13.8721 9.40527C14.0413 9.66569 14.126 9.99284 14.126 10.3867V12.8477C14.126 13.0234 14.1406 13.2106 14.1699 13.4092C14.2025 13.6077 14.2497 13.7786 14.3115 13.9219V14H13.3691C13.3236 13.8958 13.2878 13.7575 13.2617 13.585C13.2357 13.4092 13.2227 13.2464 13.2227 13.0967ZM13.3789 10.7969L13.3887 11.4316H12.4756C12.2184 11.4316 11.9889 11.4528 11.7871 11.4951C11.5853 11.5342 11.416 11.5944 11.2793 11.6758C11.1426 11.7572 11.0384 11.8597 10.9668 11.9834C10.8952 12.1038 10.8594 12.2454 10.8594 12.4082C10.8594 12.5742 10.8968 12.7256 10.9717 12.8623C11.0465 12.999 11.1589 13.1081 11.3086 13.1895C11.4616 13.2676 11.6488 13.3066 11.8701 13.3066C12.1468 13.3066 12.391 13.248 12.6025 13.1309C12.8141 13.0137 12.9818 12.8704 13.1055 12.7012C13.2324 12.5319 13.3008 12.3675 13.3105 12.208L13.6963 12.6426C13.6735 12.7793 13.6117 12.9307 13.5107 13.0967C13.4098 13.2627 13.2747 13.4222 13.1055 13.5752C12.9395 13.7249 12.7409 13.8503 12.5098 13.9512C12.2819 14.0488 12.0247 14.0977 11.7383 14.0977C11.3802 14.0977 11.0661 14.0277 10.7959 13.8877C10.529 13.7477 10.3206 13.5605 10.1709 13.3262C10.0244 13.0885 9.95117 12.8232 9.95117 12.5303C9.95117 12.2471 10.0065 11.998 10.1172 11.7832C10.2279 11.5651 10.3874 11.3844 10.5957 11.2412C10.804 11.0947 11.0547 10.984 11.3477 10.9092C11.6406 10.8343 11.9678 10.7969 12.3291 10.7969H13.3789ZM16.9531 13.4531L18.4229 8.7168H19.3896L17.2705 14.8154C17.2217 14.9456 17.1566 15.0856 17.0752 15.2354C16.9971 15.3883 16.8962 15.5332 16.7725 15.6699C16.6488 15.8066 16.499 15.9173 16.3232 16.002C16.1507 16.0898 15.944 16.1338 15.7031 16.1338C15.6315 16.1338 15.5404 16.124 15.4297 16.1045C15.319 16.085 15.2409 16.0687 15.1953 16.0557L15.1904 15.3232C15.2165 15.3265 15.2572 15.3298 15.3125 15.333C15.3711 15.3395 15.4118 15.3428 15.4346 15.3428C15.6396 15.3428 15.8138 15.3151 15.957 15.2598C16.1003 15.2077 16.2207 15.1182 16.3184 14.9912C16.4193 14.8675 16.5055 14.6966 16.5771 14.4785L16.9531 13.4531ZM15.874 8.7168L17.2461 12.8184L17.4805 13.7705L16.8311 14.1025L14.8877 8.7168H15.874ZM23.2422 13.0967V10.377C23.2422 10.1686 23.1999 9.98796 23.1152 9.83496C23.0339 9.67871 22.9102 9.55827 22.7441 9.47363C22.5781 9.389 22.373 9.34668 22.1289 9.34668C21.901 9.34668 21.7008 9.38574 21.5283 9.46387C21.359 9.54199 21.2256 9.64453 21.1279 9.77148C21.0335 9.89844 20.9863 10.0352 20.9863 10.1816H20.083C20.083 9.99284 20.1318 9.80566 20.2295 9.62012C20.3271 9.43457 20.4671 9.26693 20.6494 9.11719C20.835 8.96419 21.0563 8.84375 21.3135 8.75586C21.5739 8.66471 21.8636 8.61914 22.1826 8.61914C22.5667 8.61914 22.9053 8.68424 23.1982 8.81445C23.4945 8.94466 23.7256 9.1416 23.8916 9.40527C24.0609 9.66569 24.1455 9.99284 24.1455 10.3867V12.8477C24.1455 13.0234 24.1602 13.2106 24.1895 13.4092C24.222 13.6077 24.2692 13.7786 24.3311 13.9219V14H23.3887C23.3431 13.8958 23.3073 13.7575 23.2812 13.585C23.2552 13.4092 23.2422 13.2464 23.2422 13.0967ZM23.3984 10.7969L23.4082 11.4316H22.4951C22.238 11.4316 22.0085 11.4528 21.8066 11.4951C21.6048 11.5342 21.4355 11.5944 21.2988 11.6758C21.1621 11.7572 21.0579 11.8597 20.9863 11.9834C20.9147 12.1038 20.8789 12.2454 20.8789 12.4082C20.8789 12.5742 20.9163 12.7256 20.9912 12.8623C21.0661 12.999 21.1784 13.1081 21.3281 13.1895C21.4811 13.2676 21.6683 13.3066 21.8896 13.3066C22.1663 13.3066 22.4105 13.248 22.6221 13.1309C22.8337 13.0137 23.0013 12.8704 23.125 12.7012C23.252 12.5319 23.3203 12.3675 23.3301 12.208L23.7158 12.6426C23.693 12.7793 23.6312 12.9307 23.5303 13.0967C23.4294 13.2627 23.2943 13.4222 23.125 13.5752C22.959 13.7249 22.7604 13.8503 22.5293 13.9512C22.3014 14.0488 22.0443 14.0977 21.7578 14.0977C21.3997 14.0977 21.0856 14.0277 20.8154 13.8877C20.5485 13.7477 20.3402 13.5605 20.1904 13.3262C20.0439 13.0885 19.9707 12.8232 19.9707 12.5303C19.9707 12.2471 20.026 11.998 20.1367 11.7832C20.2474 11.5651 20.4069 11.3844 20.6152 11.2412C20.8236 11.0947 21.0742 10.984 21.3672 10.9092C21.6602 10.8343 21.9873 10.7969 22.3486 10.7969H23.3984ZM26.5479 6.5V14H25.6396V6.5H26.5479ZM28.9795 8.7168V14H28.0713V8.7168H28.9795ZM28.0029 7.31543C28.0029 7.16895 28.0469 7.04525 28.1348 6.94434C28.2259 6.84342 28.3594 6.79297 28.5352 6.79297C28.7077 6.79297 28.8395 6.84342 28.9307 6.94434C29.0251 7.04525 29.0723 7.16895 29.0723 7.31543C29.0723 7.4554 29.0251 7.57585 28.9307 7.67676C28.8395 7.77441 28.7077 7.82324 28.5352 7.82324C28.3594 7.82324 28.2259 7.77441 28.1348 7.67676C28.0469 7.57585 28.0029 7.4554 28.0029 7.31543ZM31.6357 14H30.7324V8.25781C30.7324 7.85742 30.8105 7.51888 30.9668 7.24219C31.123 6.96549 31.346 6.75553 31.6357 6.6123C31.9255 6.46908 32.2689 6.39746 32.666 6.39746C32.9004 6.39746 33.1299 6.42676 33.3545 6.48535C33.5791 6.54069 33.8102 6.61068 34.0479 6.69531L33.8965 7.45703C33.7467 7.39844 33.5726 7.3431 33.374 7.29102C33.1787 7.23568 32.9639 7.20801 32.7295 7.20801C32.3421 7.20801 32.0622 7.2959 31.8896 7.47168C31.7204 7.64421 31.6357 7.90625 31.6357 8.25781V14ZM32.7148 8.7168V9.41016H29.8975V8.7168H32.7148ZM34.4922 8.7168V14H33.5889V8.7168H34.4922ZM38.1689 14.0977C37.8011 14.0977 37.4674 14.0358 37.168 13.9121C36.8717 13.7852 36.6162 13.6077 36.4014 13.3799C36.1898 13.152 36.027 12.8818 35.9131 12.5693C35.7992 12.2568 35.7422 11.915 35.7422 11.5439V11.3389C35.7422 10.9092 35.8057 10.5267 35.9326 10.1914C36.0596 9.85286 36.2321 9.56641 36.4502 9.33203C36.6683 9.09766 36.9157 8.92025 37.1924 8.7998C37.4691 8.67936 37.7555 8.61914 38.0518 8.61914C38.4294 8.61914 38.7549 8.68424 39.0283 8.81445C39.305 8.94466 39.5312 9.12695 39.707 9.36133C39.8828 9.59245 40.013 9.86589 40.0977 10.1816C40.1823 10.4941 40.2246 10.8359 40.2246 11.207V11.6123H36.2793V10.875H39.3213V10.8066C39.3083 10.5723 39.2594 10.3444 39.1748 10.123C39.0934 9.90169 38.9632 9.7194 38.7842 9.57617C38.6051 9.43294 38.361 9.36133 38.0518 9.36133C37.8467 9.36133 37.6579 9.40527 37.4854 9.49316C37.3128 9.5778 37.1647 9.70475 37.041 9.87402C36.9173 10.0433 36.8213 10.25 36.7529 10.4941C36.6846 10.7383 36.6504 11.0199 36.6504 11.3389V11.5439C36.6504 11.7946 36.6846 12.0306 36.7529 12.252C36.8245 12.4701 36.9271 12.6621 37.0605 12.8281C37.1973 12.9941 37.3617 13.1243 37.5537 13.2188C37.749 13.3132 37.9704 13.3604 38.2178 13.3604C38.5368 13.3604 38.807 13.2952 39.0283 13.165C39.2497 13.0348 39.4434 12.8607 39.6094 12.6426L40.1562 13.0771C40.0423 13.2497 39.8975 13.4141 39.7217 13.5703C39.5459 13.7266 39.3294 13.8535 39.0723 13.9512C38.8184 14.0488 38.5173 14.0977 38.1689 14.0977ZM44.6094 12.9746V6.5H45.5176V14H44.6875L44.6094 12.9746ZM41.0547 11.417V11.3145C41.0547 10.9108 41.1035 10.5446 41.2012 10.2158C41.3021 9.88379 41.4437 9.59896 41.626 9.36133C41.8115 9.1237 42.0312 8.94141 42.2852 8.81445C42.5423 8.68424 42.8288 8.61914 43.1445 8.61914C43.4766 8.61914 43.7663 8.67773 44.0137 8.79492C44.2643 8.90885 44.4759 9.0765 44.6484 9.29785C44.8242 9.51595 44.9626 9.77962 45.0635 10.0889C45.1644 10.3981 45.2344 10.748 45.2734 11.1387V11.5879C45.2376 11.9753 45.1676 12.3236 45.0635 12.6328C44.9626 12.9421 44.8242 13.2057 44.6484 13.4238C44.4759 13.6419 44.2643 13.8096 44.0137 13.9268C43.763 14.0407 43.4701 14.0977 43.1348 14.0977C42.8255 14.0977 42.5423 14.0309 42.2852 13.8975C42.0312 13.764 41.8115 13.5768 41.626 13.3359C41.4437 13.0951 41.3021 12.8118 41.2012 12.4863C41.1035 12.1576 41.0547 11.8011 41.0547 11.417ZM41.9629 11.3145V11.417C41.9629 11.6807 41.9889 11.9281 42.041 12.1592C42.0964 12.3903 42.181 12.5938 42.2949 12.7695C42.4089 12.9453 42.5537 13.0837 42.7295 13.1846C42.9053 13.2822 43.1152 13.3311 43.3594 13.3311C43.6589 13.3311 43.9046 13.2676 44.0967 13.1406C44.292 13.0137 44.4482 12.846 44.5654 12.6377C44.6826 12.4294 44.7738 12.2031 44.8389 11.959V10.7822C44.7998 10.6032 44.7428 10.4307 44.668 10.2646C44.5964 10.0954 44.502 9.94564 44.3848 9.81543C44.2708 9.68197 44.1292 9.57617 43.96 9.49805C43.7939 9.41992 43.597 9.38086 43.3691 9.38086C43.1217 9.38086 42.9085 9.43294 42.7295 9.53711C42.5537 9.63802 42.4089 9.77799 42.2949 9.95703C42.181 10.1328 42.0964 10.3379 42.041 10.5723C41.9889 10.8034 41.9629 11.0508 41.9629 11.3145Z" fill="white"/>
</svg>
